<svg width="11" height="11" viewBox="0 0 11 11" fill="none" xmlns="http://www.w3.org/2000/svg">
<path d="M5.5791 0.935059C2.8911 0.935059 0.704102 3.12206 0.704102 5.81006C0.704102 8.49806 2.8911 10.6851 5.5791 10.6851C8.2671 10.6851 10.4541 8.49806 10.4541 5.81006C10.4541 3.12206 8.2671 0.935059 5.5791 0.935059ZM5.5791 1.68506C7.86173 1.68506 9.7041 3.52743 9.7041 5.81006C9.7041 8.09268 7.86173 9.93506 5.5791 9.93506C3.29648 9.93506 1.4541 8.09268 1.4541 5.81006C1.4541 3.52743 3.29648 1.68506 5.5791 1.68506ZM4.1616 3.85256L3.6216 4.39256L5.0406 5.81006L3.62235 7.22756L4.16235 7.76756L5.5791 6.34893L6.9966 7.76643L7.5366 7.22756L6.11798 5.81006L7.53548 4.39256L6.9966 3.85256L5.5791 5.27156L4.1616 3.85331V3.85256Z" fill="white"/>
</svg>
