<svg width="43" height="49" viewBox="0 0 43 49" fill="none" xmlns="http://www.w3.org/2000/svg">
<path d="M37.119 0.0488281H4.9593C2.24718 0.0488281 0.0390625 2.25678 0.0390625 4.99286V37.4409C0.0390625 40.1769 2.24702 42.3849 4.95914 42.3849H32.1752L30.903 37.9449L33.9751 40.8009L36.879 43.4889L42.0391 48.0488V4.99286C42.0391 2.25678 39.8312 0.0488281 37.119 0.0488281ZM27.8551 31.393C27.8551 31.393 26.9911 30.3609 26.2711 29.4489C29.4151 28.5608 30.6151 26.5929 30.6151 26.5929C29.6311 27.2409 28.6951 27.697 27.8551 28.0087C26.6551 28.5129 25.5031 28.8487 24.3751 29.0408C22.071 29.4728 19.9591 29.3529 18.1591 29.0169C16.791 28.7528 15.615 28.3688 14.6311 27.9849C14.0791 27.7689 13.4791 27.5049 12.8789 27.1689C12.8071 27.1208 12.7351 27.0969 12.663 27.0488C12.6151 27.0248 12.591 27.0009 12.5671 26.9769C12.1351 26.7369 11.8951 26.5689 11.8951 26.5689C11.8951 26.5689 13.0471 28.4889 16.0951 29.4008C15.3752 30.313 14.4871 31.3928 14.4871 31.3928C9.18293 31.2248 7.1671 27.7449 7.1671 27.7449C7.1671 20.0169 10.6231 13.7528 10.6231 13.7528C14.0791 11.1608 17.367 11.2328 17.367 11.2328L17.6071 11.5209C13.2871 12.7686 11.2951 14.6648 11.2951 14.6648C11.2951 14.6648 11.823 14.3769 12.7109 13.9689C15.279 12.8408 17.3191 12.5289 18.1591 12.4569C18.303 12.4328 18.4231 12.4088 18.5672 12.4088C20.1755 12.1993 21.8031 12.1832 23.4152 12.3609C25.695 12.6249 28.1432 13.2969 30.6391 14.6648C30.6391 14.6648 28.7431 12.8649 24.6631 11.6169L24.9991 11.233C24.9991 11.233 28.2871 11.1608 31.743 13.753C31.743 13.753 35.1992 20.0169 35.1992 27.7449C35.1992 27.7449 33.1591 31.2248 27.8551 31.3928V31.393ZM16.695 20.1849C15.3271 20.1849 14.2472 21.3849 14.2472 22.8488C14.2472 24.3129 15.351 25.5128 16.695 25.5128C18.0632 25.5128 19.143 24.3129 19.143 22.8488C19.1671 21.3849 18.0632 20.1849 16.6952 20.1849H16.695ZM25.4552 20.1849C24.087 20.1849 23.007 21.3849 23.007 22.8488C23.007 24.3129 24.1112 25.5128 25.4552 25.5128C26.8231 25.5128 27.903 24.3129 27.903 22.8488C27.903 21.3849 26.8231 20.1849 25.4552 20.1849Z" fill="#7289DA"/>
</svg>
