<svg width="99" height="99" viewBox="0 0 99 99" fill="none" xmlns="http://www.w3.org/2000/svg">
<circle cx="49.5933" cy="49.6756" r="49.1261" fill="#FAFAFA"/>
<path d="M42.9505 66.4071H56.2359C57.3384 66.4071 58.2322 67.3009 58.2322 68.4035V70.2332C58.2322 70.9098 57.6838 71.4582 57.0073 71.4582V74.026C57.0073 75.1286 56.1135 76.0224 55.0109 76.0224H53.4098V78.1982C53.4098 79.3008 52.516 80.1946 51.4134 80.1946H48.1047C47.0022 80.1946 46.1084 79.3008 46.1084 78.1982V76.0224H44.2092C43.1067 76.0224 42.2129 75.1286 42.2129 74.026V71.4582C41.5177 71.4582 40.9541 70.8946 40.9541 70.1995V68.4035C40.9541 67.3009 41.8479 66.4071 42.9505 66.4071Z" fill="#272727"/>
<path d="M42.2129 71.4582V71.4582C41.5177 71.4582 40.9541 70.8946 40.9541 70.1995V68.4035C40.9541 67.3009 41.8479 66.4071 42.9505 66.4071H56.2359C57.3384 66.4071 58.2322 67.3009 58.2322 68.4035V70.2332C58.2322 70.9098 57.6838 71.4582 57.0073 71.4582V71.4582M42.2129 71.4582V74.026C42.2129 75.1286 43.1067 76.0224 44.2092 76.0224H46.1084M42.2129 71.4582H57.0073M57.0073 71.4582V74.026C57.0073 75.1286 56.1135 76.0224 55.0109 76.0224H53.4098M46.1084 76.0224V78.1982C46.1084 79.3008 47.0022 80.1946 48.1047 80.1946H51.4134C52.516 80.1946 53.4098 79.3008 53.4098 78.1982V76.0224M46.1084 76.0224H53.4098" stroke="black" stroke-width="0.285197"/>
<path d="M37.903 59.5518L37.9034 59.5514L37.894 59.5439C33.6149 56.0896 30.8784 50.8018 30.8784 44.8747C30.8784 34.4684 39.3144 26.0324 49.7207 26.0324C60.1271 26.0324 68.5631 34.4684 68.5631 44.8747C68.5631 50.8015 65.8268 56.0891 61.548 59.5434C59.9135 60.8325 58.6841 62.2847 57.8744 63.5594C57.4696 64.1967 57.1685 64.7916 56.9743 65.3014C56.8115 65.7287 56.7198 66.1066 56.7117 66.4033C51.9034 66.4144 43.9777 66.4293 42.2894 66.4053C42.2466 65.1368 41.4589 63.7282 40.5519 62.5062C39.6056 61.2312 38.506 60.129 37.903 59.5518Z" fill="#FAFAFA" fill-opacity="0.5" stroke="black" stroke-width="0.285197"/>
<path fill-rule="evenodd" clip-rule="evenodd" d="M50.5787 57.2789C56.9463 56.8581 61.9808 51.56 61.9808 45.086C61.9808 38.3371 56.5097 32.8661 49.7609 32.8661C43.012 32.8661 37.541 38.3371 37.541 45.086C37.541 51.5598 42.5753 56.8579 48.9426 57.2789V66.4853H50.5787V57.2789Z" fill="#FF295F"/>
<g clip-path="url(#clip0)">
<path d="M52.1171 41.2263C51.6091 40.6596 50.9122 40.3475 50.1544 40.3475C49.588 40.3475 49.0692 40.5317 48.6126 40.8949C48.3822 41.0783 48.1734 41.3026 47.9893 41.5644C47.8053 41.3027 47.5964 41.0783 47.3659 40.8949C46.9093 40.5317 46.3906 40.3475 45.8241 40.3475C45.0664 40.3475 44.3693 40.6596 43.8614 41.2263C43.3595 41.7863 43.083 42.5514 43.083 43.3807C43.083 44.2343 43.3923 45.0157 44.0562 45.8397C44.6502 46.5769 45.5039 47.3252 46.4924 48.1917C46.83 48.4876 47.2126 48.823 47.6099 49.1803C47.7149 49.2749 47.8496 49.327 47.9893 49.327C48.1289 49.327 48.2636 49.2749 48.3685 49.1805C48.7658 48.8231 49.1486 48.4875 49.4863 48.1915C50.4747 47.3251 51.3284 46.5769 51.9224 45.8397C52.5863 45.0157 52.8955 44.2343 52.8955 43.3807C52.8955 42.5514 52.6191 41.7863 52.1171 41.2263Z" fill="#FCC0C9"/>
</g>
<g clip-path="url(#clip1)">
<path d="M55.5934 44.9365C55.2613 44.566 54.8055 44.3619 54.3101 44.3619C53.9397 44.3619 53.6006 44.4824 53.302 44.7199C53.1513 44.8397 53.0148 44.9864 52.8944 45.1576C52.7741 44.9864 52.6376 44.8397 52.4868 44.7199C52.1883 44.4824 51.8491 44.3619 51.4788 44.3619C50.9833 44.3619 50.5276 44.566 50.1954 44.9365C49.8673 45.3027 49.6865 45.8029 49.6865 46.3452C49.6865 46.9033 49.8887 47.4142 50.3229 47.953C50.7112 48.4349 51.2694 48.9242 51.9158 49.4908C52.1365 49.6843 52.3866 49.9036 52.6464 50.1372C52.715 50.199 52.8031 50.2331 52.8944 50.2331C52.9857 50.2331 53.0738 50.199 53.1424 50.1373C53.4021 49.9036 53.6525 49.6842 53.8733 49.4906C54.5195 48.9242 55.0777 48.4349 55.4661 47.9529C55.9002 47.4142 56.1024 46.9033 56.1024 46.3451C56.1024 45.8029 55.9216 45.3027 55.5934 44.9365Z" fill="#F98192"/>
</g>
<path d="M49.7604 54.8079C47.3898 54.8079 45.2174 53.9594 43.5303 52.5496M49.7604 35.364C53.7628 35.364 57.2003 37.7827 58.6911 41.2381" stroke="#CF0A26" stroke-width="0.855591" stroke-linecap="round"/>
<path d="M65.7657 45.0857C65.7657 36.2465 58.6001 29.0808 49.7608 29.0808C40.9215 29.0808 33.7559 36.2465 33.7559 45.0857" stroke="#D9D9D9" stroke-width="1.42598" stroke-linecap="round"/>
<circle cx="73.376" cy="30.5393" r="2.3267" fill="#04AB5B"/>
<circle cx="30.1767" cy="69.7222" r="3.57857" fill="#04AB5B"/>
<circle cx="26.5984" cy="54.8076" r="0.895773" fill="#37A6F6"/>
<circle cx="35.888" cy="65.2479" r="0.895773" fill="#37A6F6"/>
<circle cx="37.5403" cy="76.1647" r="0.895773" fill="#37A6F6"/>
<circle cx="64.8694" cy="75.2687" r="0.895773" fill="#37A6F6"/>
<circle cx="71.2522" cy="63.4567" r="0.895773" fill="#37A6F6"/>
<circle cx="73.0432" cy="53.016" r="0.895773" fill="#37A6F6"/>
<circle cx="63.9739" cy="25.8895" r="0.895773" fill="#37A6F6"/>
<circle cx="27.4939" cy="33.3552" r="0.895773" fill="#37A6F6"/>
<path d="M31.004 20.8635C10.1674 29.0498 3.66853 53.4322 4.694 66.1771C-0.443298 50.829 2.17621 39.0771 6.50845 29.7807C11.0193 20.1009 17.3936 14.0202 25.0221 9.05343C32.1282 4.4268 43.7563 1.9598 49.5767 1.95984C69.6397 1.95997 78.0286 15.3701 72.9746 18.4464C69.0037 20.8633 49.5767 13.5667 31.004 20.8635Z" fill="#D6FEEB"/>
<path d="M68.3446 78.6689C89.1813 70.4826 95.6801 46.1002 94.6546 33.3552C99.7919 48.7033 97.1724 60.4553 92.8402 69.7517C88.3293 79.4314 81.9551 85.5122 74.3266 90.4789C67.2205 95.1055 55.5923 97.5726 49.772 97.5725C29.7089 97.5724 21.32 84.1622 26.3741 81.086C30.345 78.669 49.772 85.9657 68.3446 78.6689Z" fill="#B4DEFC"/>
<defs>
<clipPath id="clip0">
<rect width="9.81252" height="10.0929" fill="white" transform="translate(43.083 39.7955)"/>
</clipPath>
<clipPath id="clip1">
<rect width="6.41583" height="6.59914" fill="white" transform="translate(49.6865 44.0009)"/>
</clipPath>
</defs>
</svg>
