<svg width="49" height="49" viewBox="0 0 49 49" fill="none" xmlns="http://www.w3.org/2000/svg">
<circle cx="24.9419" cy="24.957" r="24" fill="#FAFAFA"/>
<path d="M24.9675 3.59668C12.9376 3.59668 3.58105 12.9532 3.58105 24.9831C3.58105 39.0179 16.2792 45.0329 18.2842 45.0329C19.6209 45.0329 19.6209 44.3645 19.6209 43.6962V40.3546C14.9426 41.6912 12.9376 39.0179 12.2693 37.013C12.2693 37.013 12.2693 36.3446 10.9326 35.008C10.2643 34.3397 7.59101 33.003 10.2643 33.003C12.2693 33.003 13.6059 35.6763 13.6059 35.6763C15.6109 38.3496 18.2842 37.6813 19.6209 37.013C19.6209 35.6763 20.9575 34.3397 20.9575 34.3397C15.6109 33.6713 11.601 31.6664 11.601 24.3148C11.601 21.6415 12.2693 19.6365 13.6059 18.2998C13.6059 18.2998 12.2693 15.6265 13.6059 12.2849C13.6059 12.2849 16.9476 12.2849 19.6209 14.9582C21.6259 13.6216 28.3091 13.6216 30.3141 14.9582C32.9874 12.2849 36.329 12.2849 36.329 12.2849C37.6657 16.9632 36.329 18.2998 36.329 18.2998C37.6657 19.6365 38.334 21.6415 38.334 24.3148C38.334 31.6664 33.6557 33.6713 28.9774 34.3397C29.6458 35.008 30.3141 36.3446 30.3141 38.3496V43.6962C30.3141 44.3645 30.3141 45.0329 31.6507 45.0329C33.6557 45.0329 46.3539 39.0179 46.3539 24.9831C46.3539 12.9532 36.9973 3.59668 24.9675 3.59668Z" fill="black"/>
</svg>
