<svg width="91" height="91" viewBox="0 0 91 91" fill="none" xmlns="http://www.w3.org/2000/svg">
<circle cx="45.4922" cy="45.7092" r="45" fill="#272727"/>
<path d="M18.0039 19.7073L19.2819 18.4293L21.838 20.9853L20.5599 22.2633L18.0039 19.7073Z" fill="#A4AFC1"/>
<path d="M17.6812 28.3333L20.2372 25.7772L21.5152 27.0552L18.9592 29.6113L17.6812 28.3333Z" fill="#A4AFC1"/>
<path d="M25.0312 20.9856L27.5873 18.4296L28.8653 19.7076L26.3093 22.2636L25.0312 20.9856Z" fill="#A4AFC1"/>
<path d="M63.4904 24.4725C61.9957 24.4725 60.7793 23.2561 60.7793 21.7614C60.7793 20.2667 61.9957 19.0503 63.4904 19.0503C64.9851 19.0503 66.2015 20.2667 66.2015 21.7614C66.2015 23.2561 64.9851 24.4725 63.4904 24.4725ZM63.4904 20.8577C62.9934 20.8577 62.5867 21.2643 62.5867 21.7614C62.5867 22.2584 62.9934 22.6651 63.4904 22.6651C63.9874 22.6651 64.3941 22.2584 64.3941 21.7614C64.3941 21.2643 63.9874 20.8577 63.4904 20.8577Z" fill="#A4AFC1"/>
<path d="M27.6244 23.2329C24.3621 35.3008 15.8692 41.8978 14.2967 47.714C12.7243 53.5302 12.7659 66.6464 39.5189 73.8796C66.2719 81.1128 74.6401 65.7445 76.368 59.3464C84.4669 29.3943 33.4027 1.85869 27.6244 23.2329Z" fill="#D9D9D9"/>
<path d="M43.639 30.9774L40.9568 28.2609C37.2553 24.5087 31.2511 24.5087 27.5496 28.2609C23.8481 32.013 23.8481 38.0949 27.5496 41.8452L43.639 58.1479L59.7284 41.8452C63.4299 38.0931 63.4299 32.0112 59.7284 28.2609C56.0268 24.5087 50.0227 24.5087 46.3211 28.2609L43.639 30.9774Z" fill="#F3F3F1"/>
<path d="M54.9047 66.0423C60.6443 66.0423 65.2972 61.3894 65.2972 55.6498C65.2972 49.9102 60.6443 45.2573 54.9047 45.2573C49.1651 45.2573 44.5122 49.9102 44.5122 55.6498C44.5122 61.3894 49.1651 66.0423 54.9047 66.0423Z" fill="#04AB5B"/>
<path d="M48.5774 55.6506C48.5774 50.6079 52.1705 46.4057 56.9366 45.4605C56.2787 45.3304 55.5991 45.2581 54.9032 45.2581C49.163 45.2581 44.5107 49.9103 44.5107 55.6506C44.5107 61.3908 49.163 66.0431 54.9032 66.0431C55.5991 66.0431 56.2787 65.9726 56.9366 65.8406C52.1705 64.8954 48.5774 60.6932 48.5774 55.6506Z" fill="#00B871"/>
<path d="M31.6156 41.8458C27.9123 38.0936 27.9123 32.0118 31.6156 28.2614C32.9459 26.9149 34.5761 26.0709 36.2859 25.6913C33.235 25.0135 29.9221 25.8576 27.549 28.2614C23.8456 32.0136 23.8456 38.0954 27.549 41.8458L43.6384 58.1484L45.6717 56.088L31.6156 41.8458Z" fill="#D5DBE1"/>
<path d="M54.9028 67.3979C48.4251 67.3979 43.1548 62.1276 43.1548 55.6499C43.1548 49.1722 48.4251 43.9019 54.9028 43.9019C61.3805 43.9019 66.6509 49.1722 66.6509 55.6499C66.6509 62.1276 61.3805 67.3979 54.9028 67.3979ZM54.9028 46.6129C49.9198 46.6129 45.8659 50.6669 45.8659 55.6499C45.8659 60.6329 49.9198 64.6869 54.9028 64.6869C59.8858 64.6869 63.9398 60.6329 63.9398 55.6499C63.9398 50.6669 59.8858 46.6129 54.9028 46.6129Z" fill="black"/>
<path d="M53.5449 52.4871H56.256V60.6203H53.5449V52.4871Z" fill="black"/>
<path d="M57.5596 55.2525L54.9028 52.5956L52.2459 55.2525L50.3301 53.3367L53.9449 49.7219C54.4744 49.1923 55.3329 49.1923 55.8625 49.7219L59.4773 53.3367L57.5596 55.2525Z" fill="black"/>
<path d="M47.7057 30.9777L50.3878 28.2612C51.7181 26.9147 53.3483 26.0706 55.0581 25.6911C52.0073 25.0133 48.6943 25.8573 46.3212 28.2612L45.6724 28.9173L47.7057 30.9777Z" fill="#D5DBE1"/>
<path d="M38.1376 54.3467L26.4636 42.6457C22.2163 38.3911 22.2163 31.4706 26.4654 27.216C28.5204 25.1555 31.2568 24.0205 34.1649 24.0205C37.0748 24.0205 39.8112 25.1555 41.8698 27.2196L43.6067 28.9601L45.3436 27.2178C47.4022 25.1555 50.1368 24.0205 53.0485 24.0205C55.9602 24.0205 58.6948 25.1555 60.7534 27.2196C64.6032 31.0766 65.008 37.2434 61.6987 41.5667L59.5461 39.9183C62.0349 36.6704 61.7276 32.0345 58.8322 29.1336C57.2887 27.5865 55.2337 26.7334 53.0485 26.7334C50.8634 26.7334 48.8084 27.5865 47.2649 29.1336L44.5682 31.8375C44.0604 32.3453 43.1567 32.3453 42.6488 31.8375L39.9522 29.1354C38.4087 27.5865 36.3537 26.7334 34.1685 26.7334C31.9852 26.7334 29.9302 27.5865 28.3867 29.1336C25.1912 32.3327 25.1912 37.5362 28.3849 40.7334L40.0606 52.4363L38.1376 54.3467Z" fill="black"/>
</svg>
