<svg width="39" height="39" viewBox="0 0 39 39" fill="none" xmlns="http://www.w3.org/2000/svg">
<circle cx="19.4512" cy="19.6133" r="19" fill="url(#paint0_linear)"/>
<path fill-rule="evenodd" clip-rule="evenodd" d="M21.0135 38.5888C30.78 37.7982 38.4594 29.6216 38.4594 19.6514C38.4594 18.5732 38.3696 17.5159 38.197 16.4866L28.7618 10.4932L22.5465 11.9359L22.7871 15.4648L16.0907 11.0939L14.0858 12.442L12.8026 12.1765L8.63241 12.6988V19.9155L5.87842 22.4092L21.0135 38.5888Z" fill="url(#paint1_linear)" fill-opacity="0.52"/>
<path d="M15.6865 16.7061C18.7393 17.4854 20.3839 17.4776 23.2155 16.7061V19.753C23.2155 19.753 21.1949 20.8027 19.451 20.8027C17.7072 20.8027 15.6865 19.753 15.6865 19.753V16.7061Z" fill="url(#paint2_linear)"/>
<path d="M16.2529 19.7356L16.9582 17.4053C17.3645 17.5373 17.5982 17.5983 18.0417 17.6585C17.8379 18.352 17.3849 19.8126 17.2857 20.1378C16.9582 20.0665 16.5215 19.9142 16.2529 19.7356Z" fill="#FFFCFF"/>
<path d="M17.5184 20.2308L18.2667 17.6765C18.4062 17.6984 18.5554 17.6984 18.7942 17.6984C18.5571 18.5558 18.0947 20.0878 18.0244 20.344C17.8611 20.3637 17.5859 20.2804 17.5184 20.2308Z" fill="#FFFCFF"/>
<path fill-rule="evenodd" clip-rule="evenodd" d="M19.4319 14.2608C19.4319 14.2608 19.4319 14.2608 19.4319 14.2608C19.148 14.3783 18.6402 14.788 18.6854 15.5334C18.6875 15.5682 18.6454 15.5797 18.6355 15.5463C18.5462 15.2433 18.5178 14.8504 18.5147 14.6343C18.5144 14.6146 18.4959 14.6004 18.4769 14.6057C18.0537 14.7244 17.1511 15.0957 16.6095 15.7282C16.5994 15.74 16.6001 15.7574 16.6116 15.7679C16.7161 15.8631 17.0105 16.087 17.2296 16.2504C17.2568 16.2707 17.2346 16.3153 17.202 16.3061C16.7446 16.1761 16.0406 16.0187 15.9096 16.1584C15.8971 16.1718 15.882 16.1868 15.8648 16.2039C15.6279 16.4398 14.9985 17.0664 15.2646 19.1601C15.3352 19.4427 15.6407 20.4967 17.5818 20.953C17.6175 20.9614 17.6126 21.0207 17.576 21.0207H16.8119C16.7901 21.0207 16.7756 21.0428 16.7862 21.0618C16.9719 21.3973 17.7189 22.0227 19.4319 22.137C19.4319 22.137 19.4319 22.137 19.4319 22.137C19.4319 22.137 19.432 22.137 19.432 22.137C21.1454 22.0228 21.8924 21.3973 22.0782 21.0619C22.0888 21.0428 22.0743 21.0207 22.0525 21.0207H21.2884C21.2518 21.0207 21.2469 20.9614 21.2825 20.953C23.2238 20.4968 23.5293 19.4428 23.5999 19.1601C23.866 17.0664 23.2366 16.4398 22.9996 16.2039C22.9825 16.1868 22.9674 16.1718 22.9549 16.1584C22.8239 16.0187 22.1197 16.1761 21.6624 16.3061C21.6298 16.3154 21.6076 16.2707 21.6347 16.2505C21.8538 16.0871 22.1483 15.8631 22.2528 15.7679C22.2643 15.7575 22.265 15.74 22.2549 15.7282C21.7133 15.0957 20.8105 14.7245 20.3874 14.6058C20.3684 14.6005 20.3498 14.6146 20.3496 14.6343C20.3465 14.8505 20.318 15.2434 20.2287 15.5463C20.2188 15.5798 20.1767 15.5683 20.1788 15.5334C20.2241 14.788 19.7162 14.3784 19.4323 14.2609C19.4323 14.2609 19.4322 14.2608 19.4322 14.2608C19.4322 14.2608 19.4322 14.2607 19.4321 14.2607C19.4321 14.2608 19.4321 14.2608 19.4321 14.2608C19.4321 14.2608 19.432 14.2608 19.432 14.2608C19.432 14.2608 19.432 14.2608 19.432 14.2608C19.432 14.2608 19.4319 14.2608 19.4319 14.2608ZM19.4319 17.5849C19.4319 17.5848 19.4319 17.5848 19.4319 17.5848C17.7713 17.543 16.6824 17.1319 16.1059 16.9142C16.0139 16.8794 15.935 16.8496 15.8689 16.827C15.8513 16.821 15.8327 16.8328 15.83 16.8512C15.6513 18.0794 15.724 18.8985 15.8339 19.4634C15.8347 19.4679 15.8366 19.4721 15.8394 19.4758C16.5377 20.3862 18.2119 20.5323 18.5013 20.4896C18.5103 20.4882 18.5167 20.4827 18.5216 20.4752C18.6304 20.3104 19.1695 20.1427 19.4319 20.0781C19.4319 20.0781 19.4319 20.0781 19.4319 20.078C19.4319 20.078 19.432 20.078 19.432 20.078C19.432 20.078 19.432 20.078 19.432 20.078C19.432 20.078 19.432 20.078 19.432 20.078C19.4321 20.078 19.4321 20.078 19.4322 20.078C19.4322 20.078 19.4322 20.078 19.4322 20.0781C19.4322 20.0781 19.4323 20.0781 19.4323 20.0781C19.6947 20.1427 20.2339 20.3104 20.3426 20.4752C20.3476 20.4827 20.354 20.4883 20.3629 20.4896C20.6524 20.5323 22.3267 20.3862 23.025 19.4758C23.0278 19.4721 23.0297 19.468 23.0306 19.4635C23.1404 18.8985 23.2132 18.0794 23.0345 16.8513C23.0318 16.8329 23.0132 16.8211 22.9956 16.8271C22.9295 16.8497 22.8505 16.8795 22.7586 16.9142C22.1819 17.1319 21.0929 17.5431 19.432 17.5849C19.432 17.5849 19.4319 17.5849 19.4319 17.5849Z" fill="#FFFCFF"/>
<path d="M8.6084 11.4609C11.6612 12.2403 13.3058 12.2325 16.1374 11.4609V14.5078C16.1374 14.5078 14.1168 15.5576 12.3729 15.5576C10.629 15.5576 8.6084 14.5078 8.6084 14.5078V11.4609Z" fill="url(#paint3_linear)"/>
<path d="M9.1748 14.4905L9.88011 12.1602C10.2864 12.2922 10.52 12.3532 10.9636 12.4134C10.7598 13.1069 10.3067 14.5675 10.2076 14.8926C9.88011 14.8214 9.44334 14.6691 9.1748 14.4905Z" fill="#FFFCFF"/>
<path d="M10.4403 14.9857L11.1886 12.4314C11.328 12.4533 11.4773 12.4533 11.716 12.4533C11.479 13.3107 11.0166 14.8427 10.9462 15.0989C10.783 15.1186 10.5078 15.0353 10.4403 14.9857Z" fill="#FFFCFF"/>
<path fill-rule="evenodd" clip-rule="evenodd" d="M12.3538 9.01568C12.3538 9.0157 12.3538 9.01572 12.3538 9.01572C12.0699 9.13322 11.5621 9.54284 11.6073 10.2882C11.6094 10.3231 11.5673 10.3346 11.5574 10.3011C11.4681 9.9982 11.4396 9.6053 11.4366 9.38918C11.4363 9.36948 11.4177 9.35531 11.3988 9.36063C10.9756 9.47933 10.0729 9.85058 9.53141 10.4831C9.52128 10.4949 9.52197 10.5123 9.53348 10.5228C9.63801 10.6179 9.93242 10.8419 10.1515 11.0053C10.1787 11.0256 10.1565 11.0702 10.1238 11.0609C9.66653 10.931 8.96245 10.7736 8.83147 10.9133C8.81893 10.9267 8.80385 10.9417 8.78672 10.9587C8.54975 11.1947 7.9204 11.8213 8.18645 13.915C8.25711 14.1976 8.56256 15.2516 10.5037 15.7079C10.5393 15.7162 10.5344 15.7756 10.4978 15.7756H9.73377C9.71197 15.7756 9.69747 15.7977 9.70803 15.8167C9.89381 16.1522 10.6407 16.7776 12.3538 16.8919C12.3538 16.8919 12.3538 16.8919 12.3538 16.8919C12.3538 16.8919 12.3538 16.8919 12.3539 16.8919C14.0672 16.7777 14.8143 16.1522 15.0001 15.8168C15.0107 15.7977 14.9962 15.7756 14.9744 15.7756H14.2102C14.1736 15.7756 14.1687 15.7163 14.2044 15.7079C16.1457 15.2516 16.4511 14.1976 16.5218 13.915C16.7879 11.8213 16.1585 11.1947 15.9215 10.9588C15.9044 10.9417 15.8893 10.9267 15.8767 10.9133C15.7457 10.7736 15.0416 10.931 14.5843 11.061C14.5516 11.0702 14.5294 11.0256 14.5566 11.0053C14.7757 10.842 15.0701 10.618 15.1747 10.5228C15.1862 10.5124 15.1869 10.4949 15.1767 10.4831C14.6352 9.85061 13.7324 9.47936 13.3092 9.36066C13.2903 9.35534 13.2717 9.36951 13.2714 9.38922C13.2684 9.60533 13.2399 9.99825 13.1506 10.3012C13.1407 10.3347 13.0986 10.3231 13.1007 10.2883C13.1459 9.5429 12.6381 9.13327 12.3542 9.01576C12.3541 9.01575 12.3541 9.01573 12.3541 9.0157C12.3541 9.01565 12.3541 9.01561 12.354 9.01563C12.354 9.01564 12.354 9.01565 12.354 9.01566C12.3539 9.01566 12.3539 9.01566 12.3539 9.01566C12.3539 9.01565 12.3539 9.01565 12.3539 9.01565C12.3539 9.01563 12.3538 9.01565 12.3538 9.01568ZM12.3538 12.3397C12.3538 12.3397 12.3538 12.3397 12.3538 12.3397C10.6932 12.2979 9.60429 11.8867 9.02776 11.669C8.9358 11.6343 8.85687 11.6045 8.79075 11.5819C8.77316 11.5759 8.75453 11.5877 8.75185 11.6061C8.57313 12.8342 8.64589 13.6534 8.75574 14.2183C8.75661 14.2228 8.7585 14.227 8.7613 14.2306C9.45953 15.141 11.1337 15.2871 11.4232 15.2444C11.4322 15.2431 11.4385 15.2376 11.4435 15.23C11.5523 15.0653 12.0914 14.8976 12.3538 14.8329C12.3538 14.8329 12.3538 14.8329 12.3538 14.8329C12.3538 14.8329 12.3538 14.8329 12.3538 14.8329C12.3539 14.8329 12.3539 14.8329 12.3539 14.8329C12.3539 14.8329 12.3539 14.8329 12.3539 14.8329C12.354 14.8329 12.354 14.8329 12.3541 14.8329C12.3541 14.8329 12.3541 14.8329 12.3541 14.8329C12.3541 14.833 12.3541 14.833 12.3542 14.833C12.6166 14.8976 13.1557 15.0653 13.2645 15.2301C13.2695 15.2376 13.2759 15.2432 13.2848 15.2445C13.5743 15.2872 15.2486 15.1411 15.9469 14.2307C15.9497 14.227 15.9516 14.2229 15.9525 14.2183C16.0623 13.6534 16.1351 12.8343 15.9564 11.6061C15.9537 11.5878 15.935 11.576 15.9175 11.582C15.8513 11.6046 15.7724 11.6344 15.6804 11.6691C15.1038 11.8868 14.0147 12.298 12.3538 12.3398C12.3538 12.3398 12.3538 12.3397 12.3538 12.3397Z" fill="#FFFCFF"/>
<path d="M22.6416 11.4609C25.6944 12.2403 27.339 12.2325 30.1706 11.4609V14.5078C30.1706 14.5078 28.15 15.5576 26.4061 15.5576C24.6623 15.5576 22.6416 14.5078 22.6416 14.5078V11.4609Z" fill="url(#paint4_linear)"/>
<path d="M23.208 14.4905L23.9133 12.1602C24.3196 12.2922 24.5532 12.3532 24.9968 12.4134C24.793 13.1069 24.3399 14.5675 24.2408 14.8926C23.9133 14.8214 23.4765 14.6691 23.208 14.4905Z" fill="#FFFCFF"/>
<path d="M24.4735 14.9857L25.2218 12.4314C25.3613 12.4533 25.5105 12.4533 25.7492 12.4533C25.5122 13.3107 25.0498 14.8427 24.9794 15.0989C24.8162 15.1186 24.541 15.0353 24.4735 14.9857Z" fill="#FFFCFF"/>
<path fill-rule="evenodd" clip-rule="evenodd" d="M26.387 9.01568C26.387 9.0157 26.387 9.01572 26.387 9.01572C26.1031 9.13322 25.5953 9.54284 25.6405 10.2882C25.6426 10.3231 25.6005 10.3346 25.5906 10.3011C25.5013 9.9982 25.4728 9.6053 25.4698 9.38918C25.4695 9.36948 25.4509 9.35531 25.432 9.36063C25.0088 9.47933 24.1061 9.85058 23.5646 10.4831C23.5545 10.4949 23.5552 10.5123 23.5667 10.5228C23.6712 10.6179 23.9656 10.8419 24.1847 11.0053C24.2119 11.0256 24.1897 11.0702 24.157 11.0609C23.6997 10.931 22.9957 10.7736 22.8647 10.9133C22.8521 10.9267 22.8371 10.9417 22.8199 10.9587C22.5829 11.1947 21.9536 11.8213 22.2197 13.915C22.2903 14.1976 22.5958 15.2516 24.5369 15.7079C24.5725 15.7162 24.5676 15.7756 24.531 15.7756H23.767C23.7452 15.7756 23.7307 15.7977 23.7412 15.8167C23.927 16.1522 24.6739 16.7776 26.387 16.8919C26.387 16.8919 26.387 16.8919 26.387 16.8919C26.387 16.8919 26.387 16.8919 26.3871 16.8919C28.1004 16.7777 28.8475 16.1522 29.0333 15.8168C29.0439 15.7977 29.0294 15.7756 29.0076 15.7756H28.2435C28.2069 15.7756 28.2019 15.7163 28.2376 15.7079C30.1789 15.2516 30.4843 14.1976 30.555 13.915C30.8211 11.8213 30.1917 11.1947 29.9547 10.9588C29.9376 10.9417 29.9225 10.9267 29.9099 10.9133C29.7789 10.7736 29.0748 10.931 28.6175 11.061C28.5849 11.0702 28.5626 11.0256 28.5898 11.0053C28.8089 10.842 29.1033 10.618 29.2079 10.5228C29.2194 10.5124 29.2201 10.4949 29.2099 10.4831C28.6684 9.85061 27.7656 9.47936 27.3424 9.36066C27.3235 9.35534 27.3049 9.36951 27.3046 9.38922C27.3016 9.60533 27.2731 9.99825 27.1838 10.3012C27.1739 10.3347 27.1318 10.3231 27.1339 10.2883C27.1791 9.5429 26.6713 9.13327 26.3874 9.01576C26.3873 9.01575 26.3873 9.01573 26.3873 9.0157C26.3873 9.01565 26.3873 9.01561 26.3872 9.01563C26.3872 9.01564 26.3872 9.01565 26.3872 9.01566C26.3871 9.01566 26.3871 9.01566 26.3871 9.01566C26.3871 9.01565 26.3871 9.01565 26.3871 9.01565C26.3871 9.01563 26.387 9.01565 26.387 9.01568ZM26.387 12.3397C26.387 12.3397 26.387 12.3397 26.387 12.3397C24.7264 12.2979 23.6375 11.8867 23.061 11.669C22.969 11.6343 22.8901 11.6045 22.8239 11.5819C22.8064 11.5759 22.7877 11.5877 22.7851 11.6061C22.6063 12.8342 22.6791 13.6534 22.7889 14.2183C22.7898 14.2228 22.7917 14.227 22.7945 14.2306C23.4927 15.141 25.1669 15.2871 25.4564 15.2444C25.4654 15.2431 25.4717 15.2376 25.4767 15.23C25.5855 15.0653 26.1246 14.8976 26.387 14.8329C26.387 14.8329 26.387 14.8329 26.387 14.8329C26.387 14.8329 26.387 14.8329 26.387 14.8329C26.3871 14.8329 26.3871 14.8329 26.3871 14.8329C26.3871 14.8329 26.3871 14.8329 26.3871 14.8329C26.3872 14.8329 26.3872 14.8329 26.3873 14.8329C26.3873 14.8329 26.3873 14.8329 26.3873 14.8329C26.3873 14.833 26.3873 14.833 26.3874 14.833C26.6498 14.8976 27.1889 15.0653 27.2977 15.2301C27.3027 15.2376 27.3091 15.2432 27.318 15.2445C27.6075 15.2872 29.2818 15.1411 29.9801 14.2307C29.9829 14.227 29.9848 14.2229 29.9857 14.2183C30.0955 13.6534 30.1683 12.8343 29.9896 11.6061C29.9869 11.5878 29.9683 11.576 29.9507 11.582C29.8845 11.6046 29.8056 11.6344 29.7136 11.6691C29.137 11.8868 28.0479 12.298 26.387 12.3398C26.387 12.3398 26.387 12.3397 26.387 12.3397Z" fill="#FFFCFF"/>
<path fill-rule="evenodd" clip-rule="evenodd" d="M15.5368 21.3613C16.1284 22.0106 18.4191 22.9463 19.4497 22.9463C20.4808 22.9463 22.7725 22.0106 23.3645 21.3613C26.8646 21.807 26.7531 26.1178 26.7114 27.7306C26.7061 27.9332 26.702 28.0933 26.7063 28.1977C25.4688 30.0156 21.353 30.3175 19.4497 30.2412C17.5473 30.3175 13.4334 30.0156 12.1965 28.1977C12.2008 28.0933 12.1966 27.9332 12.1914 27.7306C12.1497 26.1178 12.0383 21.807 15.5368 21.3613Z" fill="white"/>
<path d="M8.58351 16.1006C10.1797 17.6967 13.1345 17.6472 14.4124 17.4229C14.121 19.7539 14.8158 19.8669 15.0176 20.6067C11.6997 21.8397 11.9239 23.3866 11.6997 23.9246C8.38176 24.2654 6.1773 22.9008 5.48981 22.176C5.45991 21.3913 5.41807 19.6517 5.48981 18.9702C6.0951 16.7507 7.79889 16.2575 8.58351 16.1006Z" fill="white"/>
<path d="M30.2818 16.1006C28.6852 17.6967 25.7296 17.6472 24.4514 17.4229C24.7428 19.7539 24.0478 19.8669 23.846 20.6067C27.1648 21.8397 26.9406 23.3866 27.1648 23.9246C30.4837 24.2654 32.6887 22.9008 33.3764 22.176C33.4063 21.3913 33.4482 19.6517 33.3764 18.9702C32.7709 16.7507 31.0667 16.2575 30.2818 16.1006Z" fill="white"/>
<defs>
<linearGradient id="paint0_linear" x1="11.2661" y1="0.613281" x2="26.0115" y2="30.5198" gradientUnits="userSpaceOnUse">
<stop stop-color="#EB0030"/>
<stop offset="1" stop-color="#800252"/>
</linearGradient>
<linearGradient id="paint1_linear" x1="-1.53561" y1="-6.51395" x2="42.5962" y2="35.5625" gradientUnits="userSpaceOnUse">
<stop/>
<stop offset="1" stop-opacity="0"/>
</linearGradient>
<linearGradient id="paint2_linear" x1="19.451" y1="18.1825" x2="19.451" y2="20.8027" gradientUnits="userSpaceOnUse">
<stop stop-color="#560038"/>
<stop offset="1" stop-color="#560038" stop-opacity="0"/>
</linearGradient>
<linearGradient id="paint3_linear" x1="12.3729" y1="12.9374" x2="12.3729" y2="15.5576" gradientUnits="userSpaceOnUse">
<stop stop-color="#560038"/>
<stop offset="1" stop-color="#560038" stop-opacity="0"/>
</linearGradient>
<linearGradient id="paint4_linear" x1="26.4061" y1="12.9374" x2="26.4061" y2="15.5576" gradientUnits="userSpaceOnUse">
<stop stop-color="#560038"/>
<stop offset="1" stop-color="#560038" stop-opacity="0"/>
</linearGradient>
</defs>
</svg>
