<svg width="39" height="39" viewBox="0 0 39 39" fill="none" xmlns="http://www.w3.org/2000/svg">
<circle cx="19.916" cy="19.6113" r="19" fill="url(#paint0_linear)"/>
<path fill-rule="evenodd" clip-rule="evenodd" d="M21.3312 38.5985L7.47852 24.2234V19.7028V16.0687L9.25128 14.6504H11.4672H14.6582L15.7923 12.6976L25.7623 12.4409L28.4858 11.6367L38.8839 20.8997C38.2706 30.3449 30.7554 37.9087 21.3312 38.5985Z" fill="url(#paint1_linear)" fill-opacity="0.52"/>
<path d="M7.92188 14.8281C17.6977 17.3237 22.9641 17.2988 32.0315 14.8281V24.585C32.0315 24.585 25.5609 27.9466 19.9767 27.9466C14.3925 27.9466 7.92188 24.585 7.92188 24.585V14.8281Z" fill="url(#paint2_linear)"/>
<path d="M9.73535 24.5326L11.9939 17.0703C13.295 17.4932 14.0431 17.6883 15.4635 17.8812C14.8108 20.1019 13.36 24.7791 13.0426 25.8204C11.9939 25.5923 10.5953 25.1044 9.73535 24.5326Z" fill="#FFFCFF"/>
<path d="M13.7876 26.1183L16.184 17.9388C16.6305 18.0089 17.1084 18.0089 17.873 18.0089C17.1138 20.7546 15.6332 25.6605 15.4079 26.4808C14.885 26.5439 14.0038 26.2772 13.7876 26.1183Z" fill="#FFFCFF"/>
<path d="M17.612 11.7683C17.0718 8.94037 18.9227 7.41243 19.9157 7.00195V17.6466C13.6003 17.4877 9.86677 15.6606 8.39714 15.184C7.80135 19.1956 8.03967 21.8569 8.39714 23.684C10.6612 26.6629 16.1822 27.0998 16.9766 26.941C17.2627 26.4008 19.0552 25.842 19.9157 25.6302V32.2237C14.1961 31.8423 11.8395 29.6816 11.3761 28.6489H15.0303C7.88079 27.3381 6.80826 23.6442 6.56994 22.691C5.65639 15.5017 8.03964 13.7144 8.63543 13.0788C9.11207 12.5704 11.9586 13.2907 13.3223 13.7144C12.6206 13.198 11.1377 12.0859 10.82 11.7683C12.5994 9.63944 15.6658 8.41853 16.9766 8.07418C16.9766 8.88181 17.1036 10.7513 17.612 11.7683Z" fill="#FFFCFF"/>
<path d="M22.2195 11.7684C22.7597 8.94055 20.9088 7.41243 19.9157 7.00195V17.6466C26.2317 17.4877 29.9653 15.6608 31.435 15.1841C32.0309 19.1958 31.7925 21.857 31.435 23.6841C29.1709 26.6631 23.6494 27.1 22.8549 26.9411C22.5689 26.4009 20.7763 25.842 19.9157 25.6302V32.2237C25.6358 31.8423 27.9925 29.6818 28.4559 28.6491H24.8014C31.9514 27.3383 33.024 23.6444 33.2624 22.6911C34.176 15.5019 31.7926 13.7145 31.1967 13.079C30.7201 12.5706 27.8733 13.2909 26.5095 13.7145C27.2113 13.1982 28.6943 12.0861 29.012 11.7684C27.2325 9.63961 24.1658 8.4187 22.8549 8.07435C22.8549 8.88198 22.7279 10.7515 22.2195 11.7684Z" fill="#FFFCFF"/>
<defs>
<linearGradient id="paint0_linear" x1="11.7309" y1="0.611328" x2="26.4764" y2="30.5179" gradientUnits="userSpaceOnUse">
<stop stop-color="#EB0030"/>
<stop offset="1" stop-color="#800252"/>
</linearGradient>
<linearGradient id="paint1_linear" x1="0.332" y1="-4.68403" x2="42.6913" y2="35.8824" gradientUnits="userSpaceOnUse">
<stop/>
<stop offset="1" stop-opacity="0"/>
</linearGradient>
<linearGradient id="paint2_linear" x1="19.9767" y1="19.556" x2="19.9767" y2="27.9466" gradientUnits="userSpaceOnUse">
<stop stop-color="#560038"/>
<stop offset="1" stop-color="#560038" stop-opacity="0"/>
</linearGradient>
</defs>
</svg>
