<svg width="91" height="91" viewBox="0 0 91 91" fill="none" xmlns="http://www.w3.org/2000/svg">
<circle cx="45.4922" cy="45.7092" r="45" fill="#272727"/>
<path d="M76.0503 49.8571C69.215 39.3908 69.9415 28.6625 66.6468 23.6182C63.352 18.5739 53.5327 9.87701 30.3319 25.0315C7.13113 40.1861 13.0321 56.66 16.6576 62.2067C33.6249 88.1817 88.1577 68.3932 76.0503 49.8571Z" fill="#EFEFEF"/>
<path d="M18.3794 19.5994L19.6574 18.3214L22.2133 20.8773L20.9354 22.1553L18.3794 19.5994Z" fill="#A4AFC1"/>
<path d="M18.0591 28.2258L20.615 25.6699L21.893 26.9478L19.3371 29.5038L18.0591 28.2258Z" fill="#A4AFC1"/>
<path d="M25.4072 20.8774L27.9632 18.3215L29.2412 19.5995L26.6852 22.1554L25.4072 20.8774Z" fill="#A4AFC1"/>
<path d="M71.254 24.7565C69.7593 24.7565 68.543 23.5401 68.543 22.0455C68.543 20.5508 69.7593 19.3345 71.254 19.3345C72.7486 19.3345 73.965 20.5508 73.965 22.0455C73.965 23.5401 72.7486 24.7565 71.254 24.7565ZM71.254 21.1418C70.757 21.1418 70.3503 21.5485 70.3503 22.0455C70.3503 22.5425 70.757 22.9491 71.254 22.9491C71.751 22.9491 72.1576 22.5425 72.1576 22.0455C72.1576 21.5485 71.751 21.1418 71.254 21.1418Z" fill="#A4AFC1"/>
<path d="M65.8316 62.3185C65.8316 64.3156 64.214 65.9332 62.2169 65.9332H28.7812C26.7841 65.9332 25.1665 64.3156 25.1665 62.3185V28.8827C25.1665 26.8856 26.7841 25.2681 28.7812 25.2681H62.2169C64.214 25.2681 65.8316 26.8856 65.8316 28.8827V62.3185Z" fill="#F3F3F1"/>
<path d="M29.233 62.3185V28.8827C29.233 26.8856 30.8506 25.2681 32.8477 25.2681H28.7812C26.7841 25.2681 25.1665 26.8856 25.1665 28.8827V62.3185C25.1665 64.3156 26.7841 65.9332 28.7812 65.9332H32.8477C30.8506 65.9332 29.233 64.3156 29.233 62.3185Z" fill="#D5DBE1"/>
<path d="M31.9613 56.4645L31.5858 56.8401L31.9613 57.2157L33.878 59.1323L34.2536 59.5079L34.6292 59.1323L59.0247 34.7368L59.4003 34.3612L59.0247 33.9857L57.108 32.069L56.7324 31.6934L56.3569 32.069L31.9613 56.4645Z" fill="#EC0B2B" stroke="#EC0B2B" stroke-width="1.06228"/>
<path d="M32.1777 34.2026L31.8021 34.5781L32.1777 34.9537L56.356 59.132L56.7315 59.5076L57.1071 59.132L59.0238 57.2153L59.3994 56.8397L59.0238 56.4642L34.8455 32.2859L34.4699 31.9103L34.0943 32.2859L32.1777 34.2026Z" fill="#EC0B2B" stroke="#EC0B2B" stroke-width="1.06228"/>
<path d="M62.217 67.2887H28.7812C26.0395 67.2887 23.811 65.0603 23.811 62.3185V28.8828C23.811 26.141 26.0395 23.9126 28.7812 23.9126H62.217C64.9587 23.9126 67.1871 26.141 67.1871 28.8828V62.3185C67.1871 65.0603 64.9587 67.2887 62.217 67.2887ZM28.7812 26.6236C27.536 26.6236 26.522 27.6375 26.522 28.8828V62.3185C26.522 63.5638 27.536 64.5777 28.7812 64.5777H62.217C63.4622 64.5777 64.4761 63.5638 64.4761 62.3185V28.8828C64.4761 27.6375 63.4622 26.6236 62.217 26.6236H28.7812Z" fill="black"/>
</svg>
