<svg width="91" height="91" viewBox="0 0 91 91" fill="none" xmlns="http://www.w3.org/2000/svg">
<circle cx="45.4922" cy="45.7095" r="45" fill="#272727"/>
<g filter="url(#filter0_d)">
<path d="M27.6254 21.3303C24.3631 33.3982 15.8702 39.9952 14.2977 45.8114C12.7253 51.6276 12.7669 64.7438 39.5199 71.977C66.2729 79.2102 74.6411 63.8419 76.3689 57.4438C84.4678 27.4917 33.4036 -0.0439014 27.6254 21.3303Z" fill="#D9D9D9"/>
</g>
<path d="M18.0039 17.8047L19.2819 16.5267L21.838 19.0827L20.5599 20.3607L18.0039 17.8047Z" fill="#A4AFC1"/>
<path d="M17.6812 26.4304L20.2372 23.8744L21.5152 25.1524L18.9592 27.7084L17.6812 26.4304Z" fill="#A4AFC1"/>
<path d="M25.0312 19.0833L27.5873 16.5272L28.8653 17.8052L26.3093 20.3613L25.0312 19.0833Z" fill="#A4AFC1"/>
<path d="M63.4904 22.5699C61.9957 22.5699 60.7793 21.3535 60.7793 19.8588C60.7793 18.3641 61.9957 17.1477 63.4904 17.1477C64.9851 17.1477 66.2015 18.3641 66.2015 19.8588C66.2015 21.3535 64.9851 22.5699 63.4904 22.5699ZM63.4904 18.9551C62.9934 18.9551 62.5867 19.3618 62.5867 19.8588C62.5867 20.3558 62.9934 20.7625 63.4904 20.7625C63.9874 20.7625 64.3941 20.3558 64.3941 19.8588C64.3941 19.3618 63.9874 18.9551 63.4904 18.9551Z" fill="#A4AFC1"/>
<path d="M40.501 56.2378H50.9568C51.8208 56.2378 52.5212 56.9382 52.5212 57.8022V59.246C52.5212 59.7779 52.09 60.2092 51.5581 60.2092V62.2332C51.5581 63.0972 50.8577 63.7977 49.9936 63.7977H48.7296V65.5136C48.7296 66.3776 48.0292 67.078 47.1652 67.078H44.5534C43.6894 67.078 42.989 66.3776 42.989 65.5136V63.7977H41.4906C40.6266 63.7977 39.9262 63.0972 39.9262 62.2332V60.2092C39.3796 60.2092 38.9365 59.7661 38.9365 59.2195V57.8022C38.9365 56.9382 39.637 56.2378 40.501 56.2378Z" fill="#272727"/>
<path d="M39.9262 60.2092V60.2092C39.3796 60.2092 38.9365 59.7661 38.9365 59.2195V57.8022C38.9365 56.9382 39.637 56.2378 40.501 56.2378H50.9568C51.8208 56.2378 52.5212 56.9382 52.5212 57.8022V59.246C52.5212 59.7779 52.09 60.2092 51.5581 60.2092V60.2092M39.9262 60.2092V62.2332C39.9262 63.0972 40.6266 63.7977 41.4906 63.7977H42.989M39.9262 60.2092H51.5581M51.5581 60.2092V62.2332C51.5581 63.0972 50.8577 63.7977 49.9936 63.7977H48.7296M42.989 63.7977V65.5136C42.989 66.3776 43.6894 67.078 44.5534 67.078H47.1652C48.0292 67.078 48.7296 66.3776 48.7296 65.5136V63.7977M42.989 63.7977H48.7296" stroke="black" stroke-width="0.223493"/>
<path d="M36.5421 50.8486L36.5423 50.8484L36.535 50.8424C33.1706 48.1265 31.019 43.9689 31.019 39.3087C31.019 31.1267 37.6518 24.4938 45.8338 24.4938C54.0159 24.4938 60.6487 31.1267 60.6487 39.3087C60.6487 43.9686 58.4973 48.126 55.1332 50.842C53.8481 51.8554 52.8814 52.9973 52.2449 53.9994C51.9266 54.5005 51.6899 54.9682 51.5372 55.369C51.4091 55.7052 51.3371 56.0023 51.3307 56.2356C47.55 56.2443 41.3173 56.2561 39.9907 56.2372C39.9572 55.2399 39.3378 54.1323 38.6247 53.1714C37.8807 52.169 37.0162 51.3024 36.5421 50.8486Z" fill="#FAFAFA" fill-opacity="0.5" stroke="black" stroke-width="0.223493"/>
<path fill-rule="evenodd" clip-rule="evenodd" d="M46.5053 49.0606C51.5132 48.7314 55.4732 44.5651 55.4732 39.4739C55.4732 34.1677 51.1717 29.8662 45.8655 29.8662C40.5593 29.8662 36.2578 34.1677 36.2578 39.4739C36.2578 44.5628 40.2143 48.7276 45.2189 49.0602V56.2981H46.5053V49.0606Z" fill="#FF295F"/>
<path d="M50.4518 39.3573C50.1907 39.066 49.8324 38.9055 49.4428 38.9055C49.1516 38.9055 48.885 39.0002 48.6502 39.1869C48.5318 39.2812 48.4244 39.3965 48.3298 39.5311C48.2352 39.3965 48.1278 39.2812 48.0093 39.1869C47.7746 39.0002 47.5079 38.9055 47.2168 38.9055C46.8272 38.9055 46.4689 39.066 46.2077 39.3573C45.9497 39.6452 45.8076 40.0385 45.8076 40.4648C45.8076 40.9036 45.9666 41.3053 46.3079 41.7289C46.6133 42.1079 47.0521 42.4925 47.5603 42.938C47.7338 43.0901 47.9305 43.2626 48.1348 43.4462C48.1887 43.4948 48.258 43.5216 48.3298 43.5216C48.4016 43.5216 48.4708 43.4948 48.5247 43.4463C48.729 43.2626 48.9258 43.0901 49.0994 42.9379C49.6075 42.4925 50.0464 42.1079 50.3517 41.7289C50.693 41.3053 50.852 40.9036 50.852 40.4648C50.852 40.0385 50.7098 39.6452 50.4518 39.3573Z" fill="#F98192"/>
<path d="M47.7191 36.4397C47.3198 35.9942 46.7718 35.7488 46.176 35.7488C45.7307 35.7488 45.3228 35.8936 44.9638 36.1792C44.7826 36.3233 44.6184 36.4997 44.4737 36.7055C44.329 36.4997 44.1648 36.3233 43.9836 36.1792C43.6246 35.8936 43.2167 35.7488 42.7714 35.7488C42.1756 35.7488 41.6276 35.9942 41.2282 36.4397C40.8336 36.88 40.6162 37.4816 40.6162 38.1336C40.6162 38.8047 40.8594 39.419 41.3814 40.0669C41.8484 40.6465 42.5196 41.2349 43.2968 41.9161C43.5622 42.1488 43.8631 42.4125 44.1754 42.6934C44.258 42.7678 44.3639 42.8087 44.4737 42.8087C44.5835 42.8087 44.6894 42.7678 44.7718 42.6936C45.0842 42.4126 45.3852 42.1487 45.6507 41.916C46.4279 41.2348 47.099 40.6465 47.566 40.0669C48.0881 39.419 48.3312 38.8047 48.3312 38.1335C48.3312 37.4816 48.1138 36.88 47.7191 36.4397Z" fill="#FCC0C9"/>
<path d="M45.8627 47.1178C43.9989 47.1178 42.2908 46.4507 40.9644 45.3423M45.8627 31.8303C49.0095 31.8303 51.7123 33.732 52.8844 36.4488" stroke="#CF0A26" stroke-width="0.670478" stroke-linecap="round"/>
<path d="M58.4476 39.474C58.4476 32.5243 52.8137 26.8904 45.8639 26.8904C38.9142 26.8904 33.2803 32.5243 33.2803 39.474" stroke="#D9D9D9" stroke-width="1.11746" stroke-linecap="round"/>
<circle cx="64.593" cy="28.4216" r="1.82933" fill="#04AB5B"/>
<circle cx="30.465" cy="58.8441" r="2.8136" fill="#04AB5B"/>
<circle cx="27.6525" cy="47.1186" r="0.704289" fill="#37A6F6"/>
<circle cx="34.9572" cy="55.3268" r="0.704289" fill="#37A6F6"/>
<circle cx="36.256" cy="63.9101" r="0.704289" fill="#37A6F6"/>
<circle cx="57.7429" cy="63.2053" r="0.704289" fill="#37A6F6"/>
<circle cx="62.7634" cy="53.9172" r="0.704289" fill="#37A6F6"/>
<circle cx="64.1706" cy="45.7097" r="0.704289" fill="#37A6F6"/>
<circle cx="57.0373" cy="24.3813" r="0.704289" fill="#37A6F6"/>
<circle cx="28.3557" cy="30.2517" r="0.704289" fill="#37A6F6"/>
<defs>
<filter id="filter0_d" x="1.00075" y="2.05814" width="88.9839" height="85.6223" filterUnits="userSpaceOnUse" color-interpolation-filters="sRGB">
<feFlood flood-opacity="0" result="BackgroundImageFix"/>
<feColorMatrix in="SourceAlpha" type="matrix" values="0 0 0 0 0 0 0 0 0 0 0 0 0 0 0 0 0 0 127 0"/>
<feOffset dy="1.06228"/>
<feGaussianBlur stdDeviation="6.37365"/>
<feColorMatrix type="matrix" values="0 0 0 0 1 0 0 0 0 0.160784 0 0 0 0 0.372549 0 0 0 1 0"/>
<feBlend mode="normal" in2="BackgroundImageFix" result="effect1_dropShadow"/>
<feBlend mode="normal" in="SourceGraphic" in2="effect1_dropShadow" result="shape"/>
</filter>
</defs>
</svg>
