<svg width="49" height="49" viewBox="0 0 49 49" fill="none" xmlns="http://www.w3.org/2000/svg">
<circle cx="24.5942" cy="24.0088" r="24" fill="#FAFAFA"/>
<path d="M21.7395 20.1856L26.9788 12.5872C27.9731 11.159 29.2493 10.4434 30.8215 10.4434C32.0977 10.4434 33.206 10.8978 34.1418 11.8066C35.0759 12.7154 35.543 13.8016 35.543 15.0667C35.543 16.0009 35.2976 16.8289 34.8004 17.5414L30.0774 24.4131L35.8549 31.7392C36.4297 32.4691 36.721 33.3225 36.721 34.2994C36.721 35.5914 36.2682 36.7029 35.3594 37.6324C34.9358 38.0803 34.4238 38.4353 33.8557 38.6749C33.2877 38.9145 32.6761 39.0334 32.0597 39.0241C30.6426 39.0241 29.5628 38.5634 28.8186 37.6419L21.7427 28.81V33.6772C21.7427 35.0689 21.502 36.1488 21.0191 36.9214C20.1404 38.3227 18.8721 39.0241 17.1922 39.0241C15.6674 39.0241 14.4831 38.5048 13.6455 37.4772C12.8602 36.524 12.4675 35.2669 12.4675 33.6978V15.643C12.4675 14.161 12.8681 12.9371 13.6629 11.9729C14.4942 10.9548 15.65 10.4449 17.1241 10.4449C18.5285 10.4449 19.6954 10.9548 20.6328 11.9729C21.1537 12.5381 21.483 13.1081 21.6224 13.686C21.7063 14.0454 21.7474 14.7089 21.7474 15.6905V20.1872H21.7395V20.1856Z" fill="black"/>
</svg>
