<svg width="49" height="49" viewBox="0 0 49 49" fill="none" xmlns="http://www.w3.org/2000/svg">
<path d="M24.4883 0.0683594C11.2333 0.0683594 0.488281 10.8134 0.488281 24.0684C0.488281 37.3234 11.2333 48.0684 24.4883 48.0684C37.7433 48.0684 48.4883 37.3234 48.4883 24.0684C48.4883 10.8134 37.7433 0.0683594 24.4883 0.0683594ZM18.6133 34.0159H13.7533V18.3759H18.6133V34.0159ZM16.1533 16.4559C14.6183 16.4559 13.6258 15.3684 13.6258 14.0234C13.6258 12.6509 14.6483 11.5959 16.2158 11.5959C17.7833 11.5959 18.7433 12.6509 18.7733 14.0234C18.7733 15.3684 17.7833 16.4559 16.1533 16.4559ZM36.3633 34.0159H31.5033V25.3484C31.5033 23.3309 30.7983 21.9609 29.0408 21.9609C27.6983 21.9609 26.9008 22.8884 26.5483 23.7809C26.4183 24.0984 26.3858 24.5484 26.3858 24.9959V34.0134H21.5233V23.3634C21.5233 21.4109 21.4608 19.7784 21.3958 18.3734H25.6183L25.8408 20.5459H25.9383C26.5783 19.5259 28.1458 18.0209 30.7683 18.0209C33.9658 18.0209 36.3633 20.1634 36.3633 24.7684V34.0159Z" fill="#0E76A8"/>
</svg>
