<svg width="406" height="501" viewBox="0 0 406 501" fill="none" xmlns="http://www.w3.org/2000/svg">
<path d="M0.969727 10.6197C0.969727 5.09689 5.44688 0.619751 10.9697 0.619751H405.97V500.62H10.9697C5.44687 500.62 0.969727 496.143 0.969727 490.62V10.6197Z" fill="url(#paint0_linear)"/>
<path d="M119.338 495.134L141.671 465.562C143.68 462.901 146.975 461.316 150.494 461.316H252.635C256.229 461.316 259.585 462.969 261.577 465.725L284.005 496.712C285.178 498.329 283.902 500.496 281.79 500.477L121.466 498.938C119.36 498.919 118.133 496.731 119.338 495.134Z" fill="#1B1A1E"/>
<path d="M260.428 343.834C260.221 345.767 259.888 347.684 259.445 349.573C259.013 351.413 258.468 353.23 257.816 355.005C257.2 356.68 256.486 358.319 255.655 359.899C255.615 359.973 255.574 360.049 255.533 360.125C250.384 370.264 239.71 377.02 229.544 380.153C229.351 380.215 229.395 380.5 229.598 380.5C237.891 380.46 242.091 378.73 235.28 384.016C233.244 385.596 231.164 387.086 228.939 388.389C226.748 389.676 224.459 390.799 222.1 391.747C219.739 392.697 217.304 393.468 214.828 394.065C212.304 394.673 209.736 395.097 207.149 395.349C205.84 395.477 202.973 395.585 201.66 395.629C200.346 395.585 197.479 395.477 196.171 395.349C193.586 395.097 191.018 394.673 188.491 394.065C186.015 393.468 183.58 392.697 181.219 391.747C178.86 390.802 176.571 389.676 174.381 388.389C172.155 387.086 170.075 385.596 168.039 384.016C161.229 378.73 165.428 380.462 173.721 380.5C173.925 380.5 173.971 380.215 173.775 380.153C163.607 377.02 152.933 370.264 147.786 360.125C147.745 360.049 147.704 359.973 147.664 359.899C146.833 358.319 146.119 356.677 145.503 355.005C144.849 353.23 144.306 351.413 143.874 349.573C143.429 347.684 143.098 345.764 142.892 343.834C142.685 341.904 142.604 339.958 142.669 338.017C142.734 336.114 142.938 334.217 143.318 332.352C143.684 330.541 144.216 328.763 144.946 327.066C145.191 326.494 145.465 325.932 145.761 325.381C147.007 323.057 148.674 320.94 150.693 319.237C152.148 318.01 153.766 316.919 155.574 316.287C157.48 315.619 159.445 315.79 161.375 316.276C163.237 316.745 165.094 317.313 166.937 317.815C169.161 318.426 171.359 318.86 173.634 319.235C173.797 319.262 173.87 319.039 173.724 318.961C168.235 316.083 165.577 313.366 164.415 311.873C163.886 311.191 163.867 310.247 164.356 309.536C169.383 302.225 180.605 297.165 185.646 295.545C186.892 295.146 188.171 296.052 188.225 297.361C188.697 308.537 192.522 310.621 192.642 310.684C192.601 310.589 192.563 310.497 192.522 310.402C191.056 306.859 190.345 302.825 191.727 299.141C192.688 296.579 194.561 294.483 196.79 292.939C198.256 291.923 199.963 291.123 201.654 290.569C203.345 291.123 205.053 291.923 206.519 292.939C208.75 294.48 210.62 296.576 211.581 299.141C212.966 302.825 212.252 306.859 210.786 310.402C210.745 310.499 210.707 310.592 210.667 310.684C210.786 310.621 214.611 308.537 215.083 297.361C215.138 296.052 216.413 295.146 217.662 295.545C222.703 297.165 233.928 302.222 238.953 309.536C239.441 310.247 239.422 311.191 238.893 311.873C237.731 313.366 235.073 316.086 229.585 318.961C229.438 319.037 229.511 319.262 229.674 319.235C231.949 318.86 234.151 318.426 236.371 317.815C238.217 317.31 240.071 316.745 241.933 316.276C243.863 315.79 245.831 315.619 247.734 316.287C249.542 316.919 251.16 318.01 252.615 319.237C254.635 320.942 256.302 323.057 257.548 325.381C257.843 325.932 258.115 326.494 258.362 327.066C259.092 328.763 259.624 330.541 259.991 332.352C260.371 334.217 260.574 336.114 260.639 338.017C260.715 339.955 260.634 341.904 260.428 343.834Z" fill="white"/>
<path d="M220.766 374.764C217.579 375.161 214.34 374.55 211.55 372.967C209.215 371.642 206.137 370.242 203.634 370.31C202.32 370.345 201.004 370.345 199.687 370.31C197.184 370.242 194.103 371.642 191.771 372.967C188.981 374.552 185.742 375.163 182.555 374.764C142.363 369.761 152.16 331.993 154.351 324.952C154.522 324.406 155.173 324.181 155.646 324.509C165.546 331.361 190.083 334.026 198.653 334.765C200.656 334.939 202.67 334.939 204.674 334.765C213.244 334.024 237.781 331.361 247.681 324.509C248.153 324.181 248.802 324.406 248.976 324.952C251.161 331.993 260.958 369.764 220.766 374.764Z" fill="#550039"/>
<path d="M167.815 332.732L160.339 364.128C160.25 365.108 173.13 370.657 173.228 369.596L182.072 335.373L167.815 332.732Z" fill="white"/>
<path d="M185.572 335.864L176.543 370.28L182.611 371.322L191.639 336.907L185.572 335.864Z" fill="white"/>
<path d="M193.107 392.909L190.664 402.681C198.493 405.697 205.904 406.18 212.652 402.681L210.209 392.909H193.107Z" fill="white"/>
<path d="M289.61 395.351C279.838 405.124 230.975 419.783 230.975 419.783V444.214H172.34V419.783C172.34 419.783 123.478 405.124 113.705 395.351L121.034 388.022C121.034 388.022 147.537 398.329 162.823 402.939C168.173 404.554 173.836 404.825 179.317 403.729L180.302 403.53C183.125 402.966 185.862 402.029 188.435 400.74C189.097 400.411 189.828 400.238 190.569 400.238H212.747C213.488 400.238 214.218 400.411 214.88 400.74C217.454 402.029 220.19 402.966 223.013 403.53L223.999 403.729C229.48 404.825 235.142 404.554 240.493 402.939C255.778 398.329 282.281 388.022 282.281 388.022L289.61 395.351Z" fill="white"/>
<path d="M240.865 488.19H162.454C161.582 488.19 160.879 487.485 160.879 486.616V481.874C160.879 481.002 161.585 480.299 162.454 480.299H240.867C241.736 480.299 242.442 481.005 242.442 481.874V486.616C242.442 487.485 241.736 488.19 240.865 488.19Z" fill="#3A373E"/>
<path d="M235.861 475.036H225.337V480.297H235.861V475.036Z" fill="#302F33"/>
<path d="M180.611 475.036H170.087V480.297H180.611V475.036Z" fill="#302F33"/>
<path d="M152.33 419.783H250.989C253.042 419.783 254.594 421.615 254.228 423.608L245.196 472.59C244.654 475.53 242.058 477.666 239.029 477.666H166.552C163.626 477.666 161.088 475.668 160.439 472.856L149.122 423.749C148.652 421.716 150.218 419.783 152.33 419.783Z" fill="#3A373E"/>
<path d="M200.771 422.93L229.643 449.997L202.574 478.872L173.701 451.802L200.771 422.93Z" fill="url(#paint1_linear)"/>
<path d="M200.141 446.31C201.351 447.437 202.329 448.376 203.346 449.269C203.542 449.44 203.892 449.5 204.172 449.503C205.244 449.514 205.985 450.013 206.311 450.99C206.62 451.921 206.254 452.646 205.548 453.189C204.731 453.819 203.938 453.526 203.018 453.195C201.872 452.782 200.586 452.758 199.256 452.549C199.272 453.868 198.908 454.888 199.875 455.814C200.607 456.515 200.382 457.723 199.622 458.445C198.862 459.169 197.779 459.226 196.954 458.586C196.161 457.972 195.803 456.686 196.484 455.988C197.347 455.108 197.231 454.128 197.233 453.116C197.239 450.762 197.233 450.762 199.63 450.765C200.322 450.765 201.015 450.765 201.761 450.659C200.339 449.56 199.505 447.795 197.578 447.301C196.739 447.087 196.253 446.422 196.18 445.537C196.104 444.603 196.522 443.922 197.358 443.512C198.17 443.113 198.881 443.324 199.598 443.824C199.986 444.093 200.485 444.285 200.955 444.334C201.748 444.416 202.565 444.424 203.355 444.331C203.857 444.274 204.397 444.074 204.81 443.778C205.708 443.134 206.789 443.137 207.562 443.905C208.276 444.614 208.366 445.776 207.771 446.579C207.131 447.448 205.882 447.817 205.122 447.073C204.204 446.177 203.203 446.321 202.158 446.308C201.579 446.302 200.996 446.31 200.141 446.31Z" fill="white"/>
<path d="M121.594 388.501L119.772 385.753C119.772 385.753 122.492 380.748 121.792 378.625C121.792 378.625 120.141 374.852 116.167 382.946C116.167 382.946 111.762 374.797 108.93 372.446C108.026 371.697 106.655 372.319 106.609 373.494C106.566 374.583 107.063 376.369 108.93 379.279C109.044 379.458 108.811 379.654 108.659 379.507C107.082 377.976 104.4 375.473 102.581 374.306C101.837 373.828 100.835 374.13 100.496 374.944C99.9965 376.152 100.151 378.272 104.033 381.345C104.172 381.453 104.039 381.673 103.878 381.597C102.222 380.805 99.4835 379.54 97.6945 378.932C96.8937 378.66 95.9789 378.948 95.5609 379.684C94.9338 380.788 95.4333 382.773 102.364 385.596C102.695 385.732 102.869 386.098 102.763 386.437L102.757 386.451C102.665 386.744 102.391 386.942 102.084 386.932C101.096 386.899 99.0573 386.839 97.681 386.847C96.7852 386.853 96.2151 387.833 96.682 388.598C97.2738 389.573 98.7342 390.778 102.214 391.674C102.214 391.674 109.093 394.114 114.441 395.629L121.594 388.501Z" fill="white"/>
<path d="M281.725 388.5L283.544 385.753C283.544 385.753 280.824 380.747 281.524 378.625C281.524 378.625 283.174 374.851 287.149 382.946C287.149 382.946 291.554 374.797 294.386 372.446C295.29 371.697 296.661 372.319 296.707 373.494C296.75 374.582 296.253 376.369 294.386 379.279C294.272 379.458 294.505 379.653 294.657 379.507C296.234 377.976 298.916 375.473 300.732 374.306C301.476 373.828 302.478 374.129 302.817 374.944C303.319 376.152 303.162 378.272 299.28 381.345C299.142 381.453 299.275 381.673 299.435 381.597C301.091 380.804 303.832 379.539 305.619 378.931C306.419 378.66 307.334 378.948 307.752 379.683C308.379 380.788 307.88 382.772 300.95 385.596C300.618 385.731 300.445 386.098 300.551 386.437L300.556 386.451C300.648 386.744 300.922 386.942 301.229 386.931C302.217 386.899 304.256 386.839 305.632 386.847C306.528 386.852 307.098 387.832 306.631 388.598C306.039 389.572 304.579 390.778 301.096 391.674C301.096 391.674 294.217 394.114 288.872 395.629L281.725 388.5Z" fill="white"/>
<g clip-path="url(#clip0)">
<path d="M215.083 236.462C216.897 233.815 219.49 231.742 222.478 230.442C228.022 228.186 232.575 223.514 234.55 217.367C238.218 205.951 231.764 193.543 219.929 190.386C209.45 187.504 198.184 193.572 194.554 203.869C192.34 210.262 193.272 216.859 196.563 222.115C198.379 224.959 199.28 228.154 199.213 231.362L215.083 236.462Z" fill="#FFD15C"/>
<path d="M205.089 233.573L206.399 233.994L207.582 210.316C207.728 210.363 207.873 210.409 208.019 210.456C208.747 210.69 209.569 210.631 210.339 210.233C210.724 210.034 211.063 209.981 211.5 210.121C211.936 210.262 212.18 210.502 212.378 210.888C213.021 212.386 214.768 212.948 216.163 212.104C216.548 211.905 216.887 211.852 217.323 211.993C217.614 212.086 218.004 212.373 218.201 212.759C218.596 213.532 219.084 214.012 219.958 214.292C220.103 214.339 220.249 214.386 220.394 214.433L207.709 234.415L209.02 234.836L222.325 213.923C222.419 213.63 222.513 213.337 222.269 213.097C222.025 212.857 221.687 212.91 221.494 213.01C221.109 213.209 220.77 213.262 220.479 213.168C220.043 213.028 219.798 212.788 219.456 212.355C219.061 211.582 218.573 211.103 217.845 210.869C217.117 210.635 216.441 210.74 215.67 211.139C214.9 211.537 214.026 211.256 213.632 210.484C213.383 209.758 212.749 209.231 212.021 208.997C211.293 208.763 210.471 208.822 209.846 209.267C209.461 209.466 208.977 209.472 208.541 209.332C208.25 209.239 207.86 208.952 207.808 208.612C207.71 208.419 207.465 208.179 207.127 208.232C206.789 208.285 206.549 208.531 206.601 208.87L205.089 233.573Z" fill="white"/>
<path d="M198.236 245.903C198.4 247.893 199.724 249.772 201.762 250.427C203.8 251.082 205.971 250.326 207.263 248.804L198.236 245.903Z" fill="#344A5E"/>
<path d="M208.089 249.231L197.461 245.815C196.005 245.348 195.216 243.803 195.687 242.339L199.261 231.216L215.13 236.315L211.556 247.438C211.086 248.902 209.545 249.698 208.089 249.231Z" fill="#344A5E"/>
<path d="M213.198 241.83L197.474 236.778C196.601 236.497 196.108 235.531 196.39 234.653C196.672 233.775 197.635 233.277 198.509 233.558L214.233 238.61C215.106 238.891 215.599 239.857 215.317 240.735C215.035 241.613 214.072 242.111 213.198 241.83Z" fill="#415A6B"/>
<path d="M211.551 246.952L195.827 241.9C194.953 241.619 194.46 240.654 194.742 239.775C195.025 238.897 195.988 238.399 196.861 238.68L212.585 243.733C213.459 244.013 213.952 244.979 213.669 245.857C213.387 246.735 212.424 247.233 211.551 246.952Z" fill="#415A6B"/>
<path d="M224.333 180.176C223.605 179.942 222.689 180.294 222.407 181.172L220.808 186.148C220.573 186.88 220.92 187.799 221.794 188.079C222.668 188.36 223.438 187.962 223.72 187.084L225.319 182.107C225.601 181.229 225.061 180.41 224.333 180.176Z" fill="#FFD15C"/>
<path d="M201.956 182.835C201.562 182.062 200.688 181.782 199.918 182.18C199.147 182.579 198.865 183.457 199.259 184.229L201.625 188.864C202.019 189.637 202.893 189.918 203.663 189.519C204.434 189.121 204.716 188.243 204.322 187.47L201.956 182.835Z" fill="#FFD15C"/>
<path d="M190.953 201.582L186.002 199.991C185.274 199.757 184.358 200.109 184.076 200.987C183.841 201.719 184.188 202.638 185.062 202.918L190.012 204.509C190.74 204.743 191.656 204.391 191.938 203.513C192.173 202.781 191.68 201.816 190.953 201.582Z" fill="#FFD15C"/>
<path d="M191.279 221.062L186.656 223.452C185.886 223.851 185.604 224.729 185.998 225.501C186.392 226.274 187.266 226.554 188.036 226.156L192.659 223.766C193.43 223.368 193.712 222.49 193.317 221.717C192.923 220.945 192.05 220.664 191.279 221.062Z" fill="#FFD15C"/>
<path d="M227.386 232.664C226.992 231.892 226.119 231.611 225.348 232.009C224.577 232.408 224.295 233.286 224.69 234.058L227.055 238.693C227.45 239.466 228.323 239.747 229.093 239.348C229.864 238.95 230.146 238.072 229.752 237.299L227.386 232.664Z" fill="#FFD15C"/>
<path d="M243.949 218.61L238.998 217.02C238.271 216.786 237.354 217.137 237.072 218.015C236.837 218.747 237.184 219.666 238.058 219.947L243.008 221.537C243.736 221.771 244.652 221.42 244.934 220.542C245.169 219.81 244.822 218.891 243.949 218.61Z" fill="#FFD15C"/>
<path d="M240.975 195.372L236.352 197.762C235.581 198.161 235.299 199.039 235.693 199.811C236.088 200.584 236.961 200.864 237.732 200.466L242.354 198.076C243.125 197.678 243.407 196.8 243.013 196.027C242.618 195.255 241.745 194.974 240.975 195.372Z" fill="#FFD15C"/>
</g>
<defs>
<linearGradient id="paint0_linear" x1="203.47" y1="0.619751" x2="203.47" y2="500.62" gradientUnits="userSpaceOnUse">
<stop stop-color="#F52341"/>
<stop offset="1" stop-color="#550039"/>
</linearGradient>
<linearGradient id="paint1_linear" x1="189.846" y1="439.808" x2="221.716" y2="469.686" gradientUnits="userSpaceOnUse">
<stop stop-color="#D70037"/>
<stop offset="1.11884e-07" stop-color="#D70037"/>
<stop offset="0.7432" stop-color="#83004B"/>
<stop offset="1" stop-color="#83004B"/>
</linearGradient>
<clipPath id="clip0">
<rect width="73.4036" height="73.7879" fill="white" transform="translate(189.393 168.948) rotate(17.8131)"/>
</clipPath>
</defs>
</svg>
