<svg width="27" height="24" viewBox="0 0 27 24" fill="none" xmlns="http://www.w3.org/2000/svg">
<path d="M24.241 2.83965C22.9318 1.37911 21.1353 0.574707 19.1822 0.574707C17.7223 0.574707 16.3853 1.04945 15.2083 1.98563C14.6143 2.45819 14.0762 3.03634 13.6017 3.71113C13.1274 3.03653 12.5891 2.45819 11.9949 1.98563C10.8181 1.04945 9.4811 0.574707 8.02119 0.574707C6.06807 0.574707 4.27145 1.37911 2.96223 2.83965C1.66865 4.28313 0.956055 6.25513 0.956055 8.39265C0.956055 10.5927 1.75316 12.6066 3.4645 14.7306C4.99542 16.6306 7.19571 18.5593 9.74372 20.7927C10.6138 21.5554 11.6 22.4199 12.624 23.3408C12.8945 23.5846 13.2416 23.7187 13.6017 23.7187C13.9616 23.7187 14.3089 23.5846 14.579 23.3412C15.6031 22.4201 16.5898 21.5552 17.4603 20.7921C20.0079 18.5591 22.2082 16.6306 23.7391 14.7304C25.4504 12.6066 26.2474 10.5927 26.2474 8.39246C26.2474 6.25513 25.5348 4.28313 24.241 2.83965Z" fill="#F6435C"/>
</svg>
