<svg width="25" height="25" viewBox="0 0 25 25" fill="none" xmlns="http://www.w3.org/2000/svg">
    <path
        d="M10.7375 1.98432C11.1865 0.602356 13.1416 0.60236 13.5906 1.98433L15.4195 7.613C15.6203 8.23104 16.1963 8.64948 16.8461 8.64948H22.7644C24.2175 8.64948 24.8217 10.5089 23.6461 11.363L18.8581 14.8417C18.3323 15.2237 18.1124 15.9007 18.3132 16.5188L20.142 22.1474C20.5911 23.5294 19.0093 24.6786 17.8338 23.8245L13.0457 20.3458C12.52 19.9638 11.8081 19.9638 11.2824 20.3458L6.49434 23.8245C5.31877 24.6786 3.73706 23.5294 4.18608 22.1474L6.01495 16.5188C6.21576 15.9007 5.99578 15.2237 5.47005 14.8417L0.682003 11.363C-0.493568 10.5089 0.110598 8.64948 1.56368 8.64948H7.48203C8.13186 8.64948 8.7078 8.23104 8.90861 7.613L10.7375 1.98432Z"
        fill="#FDAA6E" />
</svg>
